<svg xmlns:xlink="http://www.w3.org/1999/xlink" xmlns="http://www.w3.org/2000/svg" viewBox="0 0 16 17" height="17" preserveAspectRatio="xMidYMid meet" class="x1sr8853" fill="currentColor" width="16" ><title fill="#EA0038">missed-call</title><path d="M9.60205 7.22656C9.16211 7.22656 8.94629 7.01074 8.94629 6.5708V1.76465C8.94629 1.42432 9.22852 1.15869 9.56055 1.17529C9.88428 1.19189 10.1333 1.44092 10.1333 1.76465V3.00146L9.99219 5.43359L11.2705 4.05566L14.8398 0.469727C14.9644 0.345215 15.1055 0.287109 15.2715 0.287109C15.6284 0.287109 15.894 0.544434 15.894 0.868164C15.894 1.04248 15.8359 1.19189 15.6948 1.32471L12.1255 4.91064L10.731 6.18066L13.1631 6.04785H14.4248C14.7485 6.04785 15.0059 6.28857 15.0225 6.6123C15.0391 6.95264 14.7651 7.22656 14.4248 7.22656H9.60205ZM4.32275 11.7671C1.92383 9.37646 0.105957 6.48779 0.105957 4.10547C0.105957 3.05127 0.462891 2.09668 1.26807 1.32471C1.75781 0.851562 2.32227 0.602539 2.87012 0.602539C3.31836 0.602539 3.7251 0.776855 4.01562 1.17529L5.80029 3.69043C6.07422 4.08057 6.21533 4.4043 6.21533 4.70312C6.21533 5.08496 5.99121 5.41699 5.62598 5.79883L5.03662 6.40479C4.94531 6.49609 4.91211 6.604 4.91211 6.71191C4.91211 6.83643 4.96191 6.95264 5.00342 7.04395C5.26904 7.55859 6.02441 8.43848 6.83789 9.25195C7.65967 10.0654 8.53955 10.8208 9.0542 11.0947C9.13721 11.1362 9.26172 11.186 9.38623 11.186C9.49414 11.186 9.61035 11.1445 9.70166 11.0532L10.291 10.4722C10.6729 10.0986 11.0132 9.88281 11.3867 9.88281C11.6855 9.88281 12.0093 10.0156 12.3994 10.2812L14.9478 12.0908C15.3379 12.373 15.4956 12.7715 15.4956 13.1865C15.4956 13.751 15.2217 14.3237 14.7817 14.8135C14.0264 15.6436 13.0884 16.0171 12.0176 16.0171C9.63525 16.0171 6.72168 14.166 4.32275 11.7671Z" fill="#EA0038"></path></svg>